<?xml version="1.0" encoding="utf-8"?>
<!-- Generator: Adobe Illustrator 27.4.1, SVG Export Plug-In . SVG Version: 6.00 Build 0)  -->
<svg version="1.1" id="Capa_1" xmlns="http://www.w3.org/2000/svg" xmlns:xlink="http://www.w3.org/1999/xlink" x="0px" y="0px"
	 viewBox="0 0 32 32" style="enable-background:new 0 0 32 32;" xml:space="preserve">
<style type="text/css">
	.st0{clip-path:url(#SVGID_00000170238883362216241000000003340032549255016351_);}
	.st1{clip-path:url(#SVGID_00000160898082478302053830000006675550560980508825_);fill:#EDEEF0;}
</style>
<g id="Ilustración_12_00000132088564119044572820000007613855753931116171_">
	<g>
		<defs>
			<rect id="SVGID_1_" x="1.1" y="9.7" width="29.8" height="12.6"/>
		</defs>
		<clipPath id="SVGID_00000033366181671436715400000010951933789399675311_">
			<use xlink:href="#SVGID_1_"  style="overflow:visible;"/>
		</clipPath>
		<g style="clip-path:url(#SVGID_00000033366181671436715400000010951933789399675311_);">
			<defs>
				<rect id="SVGID_00000052090303651257293390000015667155083649147022_" x="1.1" y="9.7" width="29.8" height="12.6"/>
			</defs>
			<clipPath id="SVGID_00000003078344178414865830000017034071164206752163_">
				<use xlink:href="#SVGID_00000052090303651257293390000015667155083649147022_"  style="overflow:visible;"/>
			</clipPath>
			<path style="clip-path:url(#SVGID_00000003078344178414865830000017034071164206752163_);fill:#EDEEF0;" d="M1.1,22.3v-3.4h1.2
				c0.4,0,0.7,0.1,1,0.4c0.3,0.3,0.4,0.6,0.4,1v0.6c0,0.4-0.1,0.7-0.4,1c-0.3,0.3-0.6,0.4-1,0.4H1.1z M1.9,19.5v2.2h0.4
				c0.2,0,0.4-0.1,0.5-0.2C2.9,21.3,3,21.1,3,20.9v-0.6c0-0.2-0.1-0.4-0.2-0.6c-0.1-0.1-0.3-0.2-0.5-0.2H1.9z"/>
			<polygon style="clip-path:url(#SVGID_00000003078344178414865830000017034071164206752163_);fill:#EDEEF0;" points="6.4,20.8 
				5,20.8 5,21.6 6.6,21.6 6.6,22.3 4.2,22.3 4.2,18.9 6.6,18.9 6.6,19.5 5,19.5 5,20.2 6.4,20.2 			"/>
			<path style="clip-path:url(#SVGID_00000003078344178414865830000017034071164206752163_);fill:#EDEEF0;" d="M8.8,21.4
				c0-0.1,0-0.2-0.1-0.3c-0.1-0.1-0.2-0.1-0.4-0.2c-0.4-0.1-0.7-0.3-1-0.4C7.1,20.3,7,20.1,7,19.8c0-0.3,0.1-0.5,0.4-0.7
				c0.2-0.2,0.6-0.3,0.9-0.3c0.4,0,0.7,0.1,0.9,0.3c0.2,0.2,0.4,0.4,0.3,0.7l0,0H8.8c0-0.1,0-0.2-0.1-0.3c-0.1-0.1-0.2-0.1-0.4-0.1
				c-0.2,0-0.3,0-0.4,0.1c-0.1,0.1-0.1,0.2-0.1,0.3c0,0.1,0,0.2,0.1,0.2c0.1,0.1,0.3,0.1,0.5,0.2c0.4,0.1,0.7,0.3,0.9,0.4
				c0.2,0.2,0.3,0.4,0.3,0.7c0,0.3-0.1,0.5-0.3,0.7c-0.2,0.2-0.5,0.3-0.9,0.3c-0.4,0-0.7-0.1-1-0.3s-0.4-0.5-0.4-0.8l0,0h0.8
				c0,0.2,0.1,0.3,0.2,0.4c0.1,0.1,0.3,0.1,0.5,0.1c0.2,0,0.3,0,0.4-0.1C8.7,21.5,8.8,21.5,8.8,21.4"/>
			<polygon style="clip-path:url(#SVGID_00000003078344178414865830000017034071164206752163_);fill:#EDEEF0;" points="18.5,20.8 
				17.2,20.8 17.2,21.6 18.7,21.6 18.7,22.3 16.4,22.3 16.4,18.9 18.7,18.9 18.7,19.5 17.2,19.5 17.2,20.2 18.5,20.2 			"/>
			<polygon style="clip-path:url(#SVGID_00000003078344178414865830000017034071164206752163_);fill:#EDEEF0;" points="21.9,22.3 
				21.1,22.3 19.9,20.1 19.9,20.1 19.9,22.3 19.1,22.3 19.1,18.9 19.9,18.9 21.1,21 21.1,21 21.1,18.9 21.9,18.9 			"/>
			<polygon style="clip-path:url(#SVGID_00000003078344178414865830000017034071164206752163_);fill:#EDEEF0;" points="24.8,19.5 
				23.9,19.5 23.9,22.3 23.1,22.3 23.1,19.5 22.2,19.5 22.2,18.9 24.8,18.9 			"/>
			<path style="clip-path:url(#SVGID_00000003078344178414865830000017034071164206752163_);fill:#EDEEF0;" d="M27.8,20.9
				c0,0.4-0.1,0.8-0.4,1c-0.3,0.3-0.6,0.4-1,0.4c-0.4,0-0.8-0.1-1-0.4c-0.3-0.3-0.4-0.6-0.4-1v-0.6c0-0.4,0.1-0.8,0.4-1
				c0.3-0.3,0.6-0.4,1-0.4c0.4,0,0.8,0.1,1,0.4c0.3,0.3,0.4,0.6,0.4,1V20.9z M27,20.2c0-0.2-0.1-0.4-0.2-0.6
				c-0.1-0.2-0.3-0.2-0.5-0.2c-0.2,0-0.4,0.1-0.5,0.2c-0.1,0.2-0.2,0.4-0.2,0.6v0.6c0,0.2,0.1,0.4,0.2,0.6c0.1,0.2,0.3,0.2,0.5,0.2
				c0.2,0,0.4-0.1,0.5-0.2c0.1-0.2,0.2-0.4,0.2-0.6V20.2z"/>
			<path style="clip-path:url(#SVGID_00000003078344178414865830000017034071164206752163_);fill:#EDEEF0;" d="M30.1,21.4
				c0-0.1,0-0.2-0.1-0.3c-0.1-0.1-0.2-0.1-0.4-0.2c-0.4-0.1-0.7-0.3-1-0.4c-0.2-0.2-0.3-0.4-0.3-0.7c0-0.3,0.1-0.5,0.4-0.7
				c0.2-0.2,0.6-0.3,0.9-0.3c0.4,0,0.7,0.1,0.9,0.3c0.2,0.2,0.4,0.4,0.3,0.7l0,0h-0.8c0-0.1,0-0.2-0.1-0.3c-0.1-0.1-0.2-0.1-0.4-0.1
				c-0.2,0-0.3,0-0.4,0.1c-0.1,0.1-0.1,0.2-0.1,0.3c0,0.1,0,0.2,0.1,0.2c0.1,0.1,0.3,0.1,0.5,0.2c0.4,0.1,0.7,0.3,0.9,0.4
				c0.2,0.2,0.3,0.4,0.3,0.7c0,0.3-0.1,0.5-0.3,0.7c-0.2,0.2-0.5,0.3-0.9,0.3c-0.4,0-0.7-0.1-1-0.3c-0.3-0.2-0.4-0.5-0.4-0.8l0,0H29
				c0,0.2,0.1,0.3,0.2,0.4s0.3,0.1,0.5,0.1c0.2,0,0.3,0,0.4-0.1C30.1,21.5,30.1,21.5,30.1,21.4"/>
			<path style="clip-path:url(#SVGID_00000003078344178414865830000017034071164206752163_);fill:#EDEEF0;" d="M1.1,17.9
				c0-0.4,0-0.8,0.1-1.4c0.1-0.5,0.2-1.1,0.3-1.7c0.1-0.6,0.2-1.2,0.4-1.8c0.1-0.6,0.3-1.1,0.4-1.6c0.1-0.5,0.3-0.9,0.4-1.2
				C2.8,9.9,2.9,9.8,3,9.8c0.1,0,0.2,0,0.3,0.1c0.1,0,0.3,0.1,0.4,0.1C3.9,10,4,10.1,4.1,10.2c0.1,0.1,0.1,0.1,0.1,0.2
				c0,0,0,0,0,0.1c0,0-0.1,0.1-0.1,0.1c0,0,0.5-0.1,0.8-0.3C5.1,10,5.3,9.9,5.5,9.9c0.2-0.1,0.4-0.1,0.6-0.1c0.4,0,0.7,0.1,0.9,0.4
				c0.2,0.3,0.3,0.6,0.4,1c0,0.4,0,0.8-0.1,1.3c-0.1,0.5-0.3,0.9-0.5,1.3c-0.2,0.4-0.5,0.7-0.9,1c-0.3,0.3-0.7,0.4-1.2,0.4
				c-0.2,0-0.4,0-0.5-0.1c-0.2-0.1-0.3-0.2-0.4-0.3c0,0,0-0.1-0.1-0.1c0-0.1,0-0.1,0-0.2c0,0,0-0.1,0.1-0.1c0,0,0.1,0,0.1,0.1
				c0.1,0.1,0.3,0.2,0.4,0.2c0.3,0,0.5-0.1,0.7-0.3c0.2-0.2,0.4-0.4,0.6-0.7c0.2-0.3,0.3-0.6,0.4-1c0.1-0.3,0.1-0.7,0.2-1
				c0-0.3,0-0.5-0.1-0.7c-0.1-0.2-0.2-0.3-0.4-0.3c-0.2,0-0.4,0.2-0.7,0.5c-0.3,0.4-0.5,0.8-0.8,1.5c-0.2,0.4-0.4,0.9-0.6,1.4
				c-0.2,0.5-0.4,1-0.5,1.5c-0.2,0.5-0.3,1-0.5,1.5c-0.1,0.5-0.3,1-0.4,1.4c0,0.1-0.1,0.2-0.3,0.2c-0.1,0-0.2,0-0.3-0.1
				c-0.1,0-0.2-0.1-0.3-0.1c-0.1-0.1-0.2-0.1-0.2-0.2C1.1,18,1.1,18,1.1,17.9"/>
			<path style="clip-path:url(#SVGID_00000003078344178414865830000017034071164206752163_);fill:#EDEEF0;" d="M14.8,10.3
				c0.2-0.2,0.4-0.3,0.6-0.4c0.2-0.1,0.4-0.1,0.7-0.1c0.1,0,0.2,0,0.3,0.1c0.1,0,0.2,0.1,0.3,0.2c0.4,0,0.8,0.1,1,0.4
				c0.3,0.2,0.5,0.6,0.6,1c0.1,0.4,0.2,0.9,0.2,1.4s-0.1,1-0.2,1.6c-0.1,0.5-0.3,1.1-0.5,1.6c-0.2,0.5-0.5,1-0.8,1.4
				c-0.3,0.4-0.6,0.7-1,1c-0.4,0.2-0.8,0.4-1.2,0.4c-0.6,0-1-0.2-1.4-0.5c-0.3-0.3-0.6-0.7-0.7-1.2c-0.1-0.5-0.2-1.1-0.1-1.7
				s0.2-1.2,0.3-1.8c0.2-0.6,0.4-1.2,0.7-1.7C14.1,11,14.5,10.6,14.8,10.3 M15,17.8c0.2,0,0.4-0.1,0.7-0.3c0.2-0.2,0.4-0.5,0.6-0.9
				c0.2-0.4,0.3-0.8,0.5-1.2c0.1-0.4,0.3-0.9,0.4-1.4c0.1-0.5,0.2-0.9,0.2-1.4c0-0.4,0-0.8,0-1.2c0-0.4-0.1-0.6-0.3-0.8
				c-0.1-0.2-0.3-0.3-0.5-0.3c-0.2,0-0.4,0.1-0.5,0.2c-0.2,0.1-0.3,0.3-0.4,0.4c-0.3,0.3-0.5,0.7-0.7,1.1c-0.2,0.4-0.4,0.9-0.5,1.4
				c-0.1,0.5-0.2,1-0.3,1.5c-0.1,0.5-0.1,1,0,1.4c0,0.4,0.1,0.7,0.3,1C14.5,17.7,14.7,17.8,15,17.8"/>
			<path style="clip-path:url(#SVGID_00000003078344178414865830000017034071164206752163_);fill:#EDEEF0;" d="M22.8,17.9
				c0-0.3,0-0.7,0.1-1.2c0.1-0.5,0.1-1,0.2-1.5c0.1-0.5,0.2-1,0.3-1.6c0.1-0.5,0.2-1,0.4-1.5c-0.5,0.9-1,1.8-1.4,2.7
				c-0.4,0.9-0.8,1.9-1.2,2.8c0,0.1,0,0.1-0.1,0.1c0,0.1,0,0.1-0.1,0.1c0,0-0.1,0-0.1-0.1c0,0-0.1-0.1-0.1-0.2
				c-0.1-0.1-0.1-0.2-0.1-0.2c0-0.1,0-0.2,0-0.3c-0.1-0.8-0.1-1.5,0-2.3c0.1-0.8,0.2-1.6,0.2-2.5c-0.2,0.5-0.4,1.1-0.6,1.7
				c-0.2,0.6-0.3,1.2-0.5,1.8c-0.1,0.6-0.3,1.1-0.4,1.6c-0.1,0.5-0.1,0.8-0.2,1.1c0,0.1-0.1,0.1-0.2,0.1c-0.1,0-0.2,0-0.3-0.1
				c-0.1,0-0.2-0.1-0.3-0.1c-0.1-0.1-0.2-0.1-0.2-0.2c-0.1-0.1-0.1-0.2-0.1-0.2c0-0.3,0.1-0.7,0.1-1.2c0.1-0.5,0.2-0.9,0.3-1.5
				c0.1-0.5,0.2-1,0.4-1.6c0.1-0.5,0.3-1,0.4-1.5c0.1-0.5,0.3-0.9,0.4-1.3c0.1-0.4,0.3-0.7,0.4-0.8c0.1-0.2,0.2-0.3,0.3-0.3
				c0.1,0,0.2,0,0.3,0.1c0.1,0,0.3,0.1,0.4,0.2c0.1,0.1,0.2,0.1,0.3,0.2c0.1,0.1,0.1,0.1,0.1,0.2c0,0,0,0,0,0.1c0,0,0,0,0,0.1
				c-0.2,0.9-0.3,1.8-0.4,2.7c-0.1,0.9-0.1,1.7,0,2.6c0.4-1,0.9-1.9,1.4-2.8c0.5-0.9,1.1-1.8,1.7-2.7c0,0,0.1-0.1,0.1-0.1
				c0-0.1,0.1-0.1,0.1-0.2c0-0.1,0.1-0.1,0.2-0.1c0.1,0,0.1-0.1,0.1-0.1c0.1,0,0.2,0,0.3,0.1c0.1,0,0.2,0.1,0.4,0.1
				c0.1,0.1,0.2,0.1,0.3,0.2c0.1,0.1,0.1,0.1,0.1,0.2c0,0,0,0.1,0,0.1c0,0-0.1,0.1-0.1,0.1c0,0-0.1,0.1-0.1,0.1
				c-0.1,0.2-0.3,0.6-0.4,1C25.2,12,25,12.5,24.9,13c-0.1,0.5-0.3,1-0.4,1.6c-0.1,0.5-0.2,1.1-0.3,1.5C24.1,16.6,24,17,24,17.4
				c-0.1,0.4-0.1,0.7-0.1,0.9c0,0.1-0.1,0.2-0.2,0.2c-0.1,0-0.2,0-0.3-0.1c-0.1,0-0.2-0.1-0.3-0.1c-0.1-0.1-0.2-0.1-0.2-0.2
				C22.9,18,22.8,18,22.8,17.9"/>
			<path style="clip-path:url(#SVGID_00000003078344178414865830000017034071164206752163_);fill:#EDEEF0;" d="M27.1,10.3
				c0.2-0.2,0.4-0.3,0.6-0.4c0.2-0.1,0.4-0.1,0.7-0.1c0.1,0,0.2,0,0.3,0.1c0.1,0,0.2,0.1,0.3,0.2c0.4,0,0.8,0.1,1,0.4
				c0.3,0.2,0.5,0.6,0.6,1c0.1,0.4,0.2,0.9,0.2,1.4s-0.1,1-0.2,1.6c-0.1,0.5-0.3,1.1-0.5,1.6c-0.2,0.5-0.5,1-0.8,1.4
				c-0.3,0.4-0.6,0.7-1,1c-0.4,0.2-0.8,0.4-1.2,0.4c-0.6,0-1-0.2-1.4-0.5c-0.3-0.3-0.6-0.7-0.7-1.2c-0.1-0.5-0.2-1.1-0.1-1.7
				c0-0.6,0.2-1.2,0.3-1.8c0.2-0.6,0.4-1.2,0.7-1.7C26.4,11,26.8,10.6,27.1,10.3 M27.3,17.8c0.2,0,0.4-0.1,0.7-0.3
				c0.2-0.2,0.4-0.5,0.6-0.9c0.2-0.4,0.3-0.8,0.5-1.2c0.1-0.4,0.3-0.9,0.4-1.4c0.1-0.5,0.2-0.9,0.2-1.4c0-0.4,0-0.8,0-1.2
				c0-0.4-0.1-0.6-0.3-0.8c-0.1-0.2-0.3-0.3-0.5-0.3c-0.2,0-0.4,0.1-0.5,0.2c-0.2,0.1-0.3,0.3-0.4,0.4c-0.3,0.3-0.5,0.7-0.7,1.1
				c-0.2,0.4-0.4,0.9-0.5,1.4c-0.1,0.5-0.2,1-0.3,1.5c-0.1,0.5-0.1,1,0,1.4c0,0.4,0.1,0.7,0.3,1C26.8,17.7,27,17.8,27.3,17.8"/>
			<path style="clip-path:url(#SVGID_00000003078344178414865830000017034071164206752163_);fill:#EDEEF0;" d="M12.6,19.7
				c-0.1-0.2-0.2-0.5-0.3-0.6c-0.2-0.2-0.6-0.3-1-0.3c0,0-0.1,0-0.1,0c0.2,0.2,0.3,0.5,0.5,0.7c0,0,0.1,0,0.1,0.1
				c0,0,0.1,0.1,0.1,0.1c0.2,0.2,0.3,0.3,0.3,0.3c0,0,0,0,0,0c0.1,0,0.2,0,0.3-0.1C12.5,19.8,12.5,19.8,12.6,19.7"/>
			<path style="clip-path:url(#SVGID_00000003078344178414865830000017034071164206752163_);fill:#EDEEF0;" d="M11.9,21.1
				c0,0.2-0.1,0.4-0.1,0.5c-0.1,0.1-0.2,0.2-0.4,0.2c-0.2,0-0.4-0.1-0.5-0.2c-0.1-0.1-0.2-0.3-0.2-0.6v-0.7c0-0.2,0.1-0.4,0.2-0.6
				c0.1-0.1,0.2-0.2,0.4-0.2c0,0,0.1,0,0.1,0c-0.1-0.2-0.3-0.4-0.4-0.6c-0.3,0.1-0.5,0.2-0.7,0.4c-0.3,0.3-0.4,0.6-0.4,1v0.7
				c0,0.4,0.1,0.7,0.4,1c0.3,0.3,0.6,0.4,1,0.4c0.4,0,0.7-0.1,1-0.3c0.2-0.2,0.3-0.5,0.4-0.9l0,0H11.9z"/>
			<path style="clip-path:url(#SVGID_00000003078344178414865830000017034071164206752163_);fill:#EDEEF0;" d="M12.5,20
				c0,0-0.1,0.1-0.1,0.1h0.3l0,0c0,0,0-0.1,0-0.1C12.6,19.9,12.6,20,12.5,20"/>
			<path style="clip-path:url(#SVGID_00000003078344178414865830000017034071164206752163_);fill:#EDEEF0;" d="M13.1,19.1
				C13.1,19.1,13.1,19.1,13.1,19.1l0,0.2C13.1,19.3,13.1,19.2,13.1,19.1C13.1,19.1,13.1,19.1,13.1,19.1"/>
			<path style="clip-path:url(#SVGID_00000003078344178414865830000017034071164206752163_);fill:#EDEEF0;" d="M15.1,18.9v2.2
				c0,0.2-0.1,0.4-0.2,0.5c-0.1,0.1-0.3,0.1-0.4,0.1c-0.2,0-0.3-0.1-0.5-0.2c-0.1-0.1-0.2-0.3-0.2-0.5v-2.2H13v0c0,0,0,0,0,0
				c0,0,0.1,0,0.1,0.1c0.1,0.1,0.1,0.1,0.1,0.2c0,0.1,0,0.2-0.1,0.3c0,0-0.1,0.1-0.1,0.1v1.5c0,0.4,0.1,0.7,0.4,0.9
				c0.3,0.2,0.6,0.3,1,0.3c0.4,0,0.8-0.1,1-0.3c0.3-0.2,0.4-0.5,0.4-0.9v-2.2H15.1z"/>
			<path style="clip-path:url(#SVGID_00000003078344178414865830000017034071164206752163_);fill:#EDEEF0;" d="M10.4,15.1
				c0.4,0.8,0.7,1.5,1.2,2.2c0.4,0.7,0.9,1.2,1.3,1.7c0,0,0.1,0.1,0.1,0.1c0,0,0.1,0,0.1,0.1c0,0,0,0,0,0.1c0,0.1,0,0.1-0.1,0.2
				c-0.1,0.1-0.2,0.2-0.3,0.2c-0.1,0.1-0.2,0.2-0.3,0.2c-0.1,0.1-0.2,0.1-0.3,0.1c-0.1,0-0.2-0.1-0.4-0.4c-0.6-0.7-1.1-1.5-1.5-2.4
				c-0.4-0.8-0.8-1.7-1.1-2.5c-0.2,0.6-0.4,1.3-0.6,1.9c-0.2,0.6-0.3,1.2-0.4,1.7c0,0.1-0.1,0.2-0.3,0.2c-0.1,0-0.2,0-0.3-0.1
				c-0.1,0-0.2-0.1-0.3-0.1c-0.1-0.1-0.2-0.1-0.2-0.2C6.9,18,6.9,18,6.9,17.9c0-0.4,0-0.8,0.1-1.4c0.1-0.5,0.2-1.1,0.3-1.7
				c0.1-0.6,0.2-1.2,0.4-1.8c0.1-0.6,0.3-1.1,0.4-1.6c0.1-0.5,0.3-0.9,0.4-1.2c0.1-0.3,0.2-0.4,0.3-0.4c0.1,0,0.2,0,0.3,0.1
				c0.1,0,0.3,0.1,0.4,0.1c0.1,0.1,0.2,0.1,0.3,0.2c0.1,0.1,0.1,0.1,0.1,0.2c0,0,0,0,0,0.1c0,0-0.1,0.1-0.1,0.1c0,0,0.4-0.3,0.7-0.4
				c0.2-0.1,0.3-0.3,0.6-0.3c0.4-0.1,0.5,0,0.7,0c0.4,0,0.7,0.1,0.9,0.4c0.2,0.3,0.3,0.6,0.4,1c0,0.4,0,0.8-0.1,1.3
				c-0.1,0.5-0.3,0.9-0.5,1.3c-0.2,0.4-0.5,0.7-0.9,1c-0.3,0.3-0.7,0.4-1.2,0.4C10.4,15.1,10.4,15.1,10.4,15.1 M9.3,14.2
				c0.1,0,0.3,0,0.4,0c0.1,0,0.3,0.1,0.4,0.2c0.3,0,0.5-0.1,0.7-0.3c0.2-0.2,0.4-0.4,0.6-0.7c0.2-0.3,0.3-0.6,0.4-1
				c0.1-0.3,0.1-0.7,0.2-1c0-0.3,0-0.5-0.1-0.7c-0.1-0.2-0.2-0.3-0.4-0.3c-0.2,0-0.4,0.2-0.7,0.5c-0.3,0.4-0.5,0.8-0.8,1.5
				c-0.1,0.3-0.2,0.6-0.4,0.9C9.5,13.6,9.4,13.9,9.3,14.2"/>
		</g>
	</g>
</g>
</svg>
