<?xml version="1.0" encoding="utf-8"?>
<!-- Generator: Adobe Illustrator 27.4.1, SVG Export Plug-In . SVG Version: 6.00 Build 0)  -->
<svg version="1.1" id="Capa_1" xmlns="http://www.w3.org/2000/svg" xmlns:xlink="http://www.w3.org/1999/xlink" x="0px" y="0px"
	 viewBox="0 0 180 180" style="enable-background:new 0 0 180 180;" xml:space="preserve">
<style type="text/css">
	.st0{clip-path:url(#SVGID_00000129171192036278244770000000300606901728437154_);}
	.st1{clip-path:url(#SVGID_00000054227529106293398660000014596822654570188161_);fill:#EDEEF0;}
</style>
<g id="Ilustración_12_00000132088564119044572820000007613855753931116171_">
	<g>
		<defs>
			<rect id="SVGID_1_" x="6.3" y="54.5" width="167.5" height="70.9"/>
		</defs>
		<clipPath id="SVGID_00000109752659001028592270000007676068004480926865_">
			<use xlink:href="#SVGID_1_"  style="overflow:visible;"/>
		</clipPath>
		<g style="clip-path:url(#SVGID_00000109752659001028592270000007676068004480926865_);">
			<defs>
				<rect id="SVGID_00000023275619604938216900000009764917995932712585_" x="6.3" y="54.5" width="167.5" height="70.9"/>
			</defs>
			<clipPath id="SVGID_00000100354142750374921170000003058839801826324412_">
				<use xlink:href="#SVGID_00000023275619604938216900000009764917995932712585_"  style="overflow:visible;"/>
			</clipPath>
			<path style="clip-path:url(#SVGID_00000100354142750374921170000003058839801826324412_);fill:#EDEEF0;" d="M6.3,125.2V106h6.9
				c2.3,0,4.1,0.7,5.6,2.2c1.5,1.5,2.3,3.3,2.3,5.6v3.4c0,2.3-0.8,4.2-2.3,5.7c-1.5,1.5-3.4,2.2-5.6,2.2H6.3z M10.7,109.5v12.3h2.2
				c1.2,0,2.1-0.4,2.8-1.2c0.7-0.8,1-1.9,1-3.2v-3.5c0-1.3-0.3-2.4-1-3.2c-0.7-0.8-1.6-1.2-2.8-1.2H10.7z"/>
			<polygon style="clip-path:url(#SVGID_00000100354142750374921170000003058839801826324412_);fill:#EDEEF0;" points="35.8,117 
				28.3,117 28.3,121.8 37.1,121.8 37.1,125.2 23.9,125.2 23.9,106 37.2,106 37.2,109.5 28.3,109.5 28.3,113.6 35.8,113.6 			"/>
			<path style="clip-path:url(#SVGID_00000100354142750374921170000003058839801826324412_);fill:#EDEEF0;" d="M49.3,120.1
				c0-0.7-0.2-1.2-0.7-1.6c-0.4-0.4-1.2-0.8-2.4-1.2c-2.4-0.8-4.2-1.6-5.4-2.4c-1.2-0.9-1.7-2.1-1.7-3.8c0-1.6,0.7-2.9,2.1-3.9
				c1.4-1,3.2-1.5,5.3-1.5c2.1,0,3.9,0.5,5.2,1.6c1.4,1.1,2,2.5,2,4.2l0,0.1h-4.3c0-0.8-0.3-1.4-0.8-1.9c-0.5-0.5-1.2-0.7-2.1-0.7
				c-0.9,0-1.6,0.2-2.1,0.6c-0.5,0.4-0.8,0.9-0.8,1.5c0,0.6,0.3,1,0.8,1.3c0.5,0.3,1.5,0.8,2.9,1.3c2.2,0.6,3.8,1.4,4.9,2.4
				c1.1,0.9,1.6,2.2,1.6,3.9c0,1.7-0.7,3-2,3.9c-1.3,0.9-3,1.4-5.2,1.4c-2.2,0-4.1-0.5-5.6-1.6c-1.6-1.1-2.4-2.7-2.3-4.7l0-0.1H43
				c0,1.1,0.3,1.9,0.9,2.4c0.6,0.5,1.5,0.7,2.7,0.7c0.9,0,1.6-0.2,2.1-0.6C49.1,121.2,49.3,120.7,49.3,120.1"/>
			<polygon style="clip-path:url(#SVGID_00000100354142750374921170000003058839801826324412_);fill:#EDEEF0;" points="104,117 
				96.5,117 96.5,121.8 105.4,121.8 105.4,125.2 92.1,125.2 92.1,106 105.4,106 105.4,109.5 96.5,109.5 96.5,113.6 104,113.6 			"/>
			<polygon style="clip-path:url(#SVGID_00000100354142750374921170000003058839801826324412_);fill:#EDEEF0;" points="123.3,125.2 
				118.9,125.2 111.9,113 111.8,113 111.8,125.2 107.4,125.2 107.4,106 111.8,106 118.8,118.2 118.9,118.2 118.9,106 123.3,106 			
				"/>
			<polygon style="clip-path:url(#SVGID_00000100354142750374921170000003058839801826324412_);fill:#EDEEF0;" points="139.3,109.5 
				134.3,109.5 134.3,125.2 129.8,125.2 129.8,109.5 124.8,109.5 124.8,106 139.3,106 			"/>
			<path style="clip-path:url(#SVGID_00000100354142750374921170000003058839801826324412_);fill:#EDEEF0;" d="M156.6,117.3
				c0,2.4-0.7,4.3-2.2,5.8c-1.5,1.5-3.4,2.3-5.9,2.3c-2.4,0-4.4-0.8-5.9-2.3c-1.5-1.5-2.3-3.5-2.3-5.8v-3.4c0-2.3,0.8-4.3,2.3-5.8
				c1.5-1.5,3.5-2.3,5.9-2.3c2.4,0,4.4,0.8,5.9,2.3c1.5,1.5,2.3,3.5,2.3,5.8V117.3z M152.1,113.9c0-1.4-0.3-2.5-1-3.4
				c-0.6-0.9-1.6-1.3-2.7-1.3c-1.2,0-2.1,0.4-2.8,1.3c-0.6,0.9-1,2-1,3.4v3.5c0,1.4,0.3,2.5,1,3.4c0.6,0.9,1.6,1.3,2.8,1.3
				c1.2,0,2.1-0.4,2.7-1.3c0.6-0.9,1-2,1-3.4V113.9z"/>
			<path style="clip-path:url(#SVGID_00000100354142750374921170000003058839801826324412_);fill:#EDEEF0;" d="M169.3,120.1
				c0-0.7-0.2-1.2-0.7-1.6c-0.4-0.4-1.2-0.8-2.4-1.2c-2.4-0.8-4.2-1.6-5.4-2.4c-1.2-0.9-1.7-2.1-1.7-3.8c0-1.6,0.7-2.9,2.1-3.9
				c1.4-1,3.2-1.5,5.3-1.5c2.1,0,3.9,0.5,5.2,1.6c1.4,1.1,2,2.5,2,4.2l0,0.1h-4.3c0-0.8-0.3-1.4-0.8-1.9c-0.5-0.5-1.2-0.7-2.1-0.7
				c-0.9,0-1.6,0.2-2.1,0.6c-0.5,0.4-0.8,0.9-0.8,1.5c0,0.6,0.3,1,0.8,1.3c0.5,0.3,1.5,0.8,2.9,1.3c2.2,0.6,3.8,1.4,4.9,2.4
				c1.1,0.9,1.6,2.2,1.6,3.9c0,1.7-0.7,3-2,3.9c-1.3,0.9-3,1.4-5.2,1.4c-2.2,0-4.1-0.5-5.6-1.6s-2.4-2.7-2.3-4.7l0-0.1h4.3
				c0,1.1,0.3,1.9,0.9,2.4c0.6,0.5,1.5,0.7,2.7,0.7c0.9,0,1.6-0.2,2.1-0.6C169.1,121.2,169.3,120.7,169.3,120.1"/>
			<path style="clip-path:url(#SVGID_00000100354142750374921170000003058839801826324412_);fill:#EDEEF0;" d="M6.3,100.6
				c0-2.1,0.2-4.7,0.6-7.8c0.4-3.1,0.9-6.3,1.5-9.7C9,79.7,9.7,76.3,10.5,73c0.8-3.3,1.6-6.3,2.4-9c0.8-2.7,1.6-4.8,2.3-6.5
				c0.7-1.7,1.4-2.5,1.9-2.5c0.4,0,0.9,0.1,1.7,0.3c0.8,0.2,1.5,0.5,2.2,0.8c0.7,0.3,1.3,0.6,1.9,1c0.6,0.4,0.8,0.7,0.8,1
				c0,0.2,0,0.3-0.2,0.4c-0.2,0.3-0.4,0.5-0.5,0.6c-0.2,0.2,3-0.7,4.4-1.8c1.3-0.9,2.5-1.5,3.6-1.9c1.1-0.5,2.1-0.7,3.2-0.7
				c2.2,0,3.9,0.7,5.1,2.2c1.2,1.5,1.8,3.3,2.1,5.6c0.2,2.2,0,4.6-0.7,7.3c-0.7,2.6-1.6,5-3,7.3c-1.3,2.2-2.9,4.1-4.9,5.6
				c-1.9,1.5-4.1,2.2-6.5,2.2c-1,0-2-0.2-2.9-0.6c-0.9-0.4-1.8-1-2.5-1.9c-0.2-0.2-0.3-0.5-0.3-0.8c0-0.3,0-0.7,0-0.9
				c0.1-0.3,0.2-0.5,0.4-0.6c0.2-0.1,0.5,0,0.8,0.3c0.7,0.6,1.5,0.9,2.4,0.9c1.5,0,2.8-0.6,4-1.7c1.2-1.1,2.3-2.5,3.1-4.2
				c0.9-1.7,1.6-3.5,2.1-5.4c0.5-2,0.8-3.8,0.9-5.4c0.1-1.7-0.1-3.1-0.5-4.2c-0.4-1.1-1.1-1.7-2-1.7c-1.2,0-2.5,1-3.9,3
				c-1.5,2-3,4.7-4.5,8.2c-1.1,2.5-2.1,5.1-3.1,8c-1,2.8-2,5.7-3,8.6c-1,2.9-1.8,5.8-2.6,8.6c-0.8,2.8-1.5,5.5-2,7.9
				c-0.2,0.7-0.6,1-1.4,1c-0.5,0-1-0.1-1.6-0.3c-0.6-0.2-1.1-0.5-1.6-0.8c-0.5-0.3-0.9-0.7-1.3-1.1C6.4,101.4,6.3,101,6.3,100.6"/>
			<path style="clip-path:url(#SVGID_00000100354142750374921170000003058839801826324412_);fill:#EDEEF0;" d="M83.4,57.7
				c1-0.9,2.1-1.6,3.3-2.1c1.2-0.5,2.5-0.8,3.8-0.8c0.6,0,1.2,0.1,1.9,0.4c0.6,0.3,1.3,0.6,1.9,0.9c2.3,0,4.2,0.7,5.7,2
				c1.5,1.4,2.6,3.2,3.3,5.4c0.7,2.3,1.1,4.8,1.1,7.7c0,2.9-0.3,5.8-0.9,8.8c-0.6,3-1.5,5.9-2.7,8.8c-1.2,2.9-2.6,5.4-4.2,7.7
				c-1.6,2.3-3.5,4.1-5.6,5.4c-2.1,1.4-4.3,2-6.7,2c-3.2,0-5.7-0.9-7.6-2.7c-1.9-1.8-3.2-4.1-4-6.9c-0.8-2.8-1-6-0.8-9.5
				s0.9-7,1.9-10.4c1-3.4,2.4-6.6,4-9.6C79.4,61.8,81.3,59.5,83.4,57.7 M84.3,100.2c1.3,0,2.5-0.6,3.7-1.8c1.2-1.2,2.3-2.8,3.3-4.8
				c1-2,2-4.2,2.8-6.8c0.8-2.5,1.5-5.1,2-7.7c0.5-2.6,0.9-5.2,1.1-7.7c0.2-2.5,0.2-4.7,0-6.6c-0.2-2.1-0.7-3.6-1.4-4.6
				c-0.8-1-1.7-1.4-2.7-1.4c-1,0-2,0.4-2.9,1.1c-0.9,0.7-1.7,1.4-2.3,2.2c-1.4,1.7-2.7,3.8-3.8,6.3c-1.1,2.5-2.1,5.2-2.8,8
				c-0.8,2.8-1.3,5.7-1.7,8.5c-0.4,2.8-0.4,5.4-0.2,7.7c0.2,2.3,0.7,4.1,1.6,5.5C81.6,99.5,82.8,100.2,84.3,100.2"/>
			<path style="clip-path:url(#SVGID_00000100354142750374921170000003058839801826324412_);fill:#EDEEF0;" d="M128.4,100.6
				c0-1.9,0.2-4.1,0.5-6.8c0.3-2.6,0.7-5.4,1.2-8.3c0.5-2.9,1.1-5.9,1.7-8.9c0.7-3,1.3-5.9,2-8.5c-3,5.1-5.7,10.2-8,15.3
				c-2.4,5.2-4.6,10.4-6.7,15.9c-0.1,0.4-0.2,0.7-0.3,0.8c-0.1,0.4-0.3,0.5-0.5,0.3c-0.3,0-0.5-0.2-0.8-0.5c-0.3-0.3-0.5-0.6-0.8-1
				c-0.4-0.5-0.6-0.9-0.6-1.3c-0.1-0.4-0.2-0.9-0.3-1.5c-0.5-4.3-0.6-8.7-0.2-13.1c0.4-4.4,0.9-9.1,1.4-14.1c-1.1,2.9-2.1,6-3.1,9.4
				c-1,3.4-1.9,6.7-2.7,9.9c-0.8,3.2-1.4,6.1-2,8.8c-0.5,2.7-0.8,4.7-0.9,6.1c0,0.6-0.3,0.8-0.9,0.8c-0.5,0-1-0.1-1.6-0.3
				c-0.6-0.2-1.1-0.5-1.6-0.8c-0.5-0.4-0.9-0.7-1.2-1.2c-0.3-0.4-0.5-0.8-0.5-1.3c0.1-1.9,0.4-4.1,0.8-6.7c0.4-2.6,0.9-5.3,1.6-8.2
				s1.3-5.8,2.1-8.8c0.8-3,1.6-5.8,2.4-8.4c0.8-2.6,1.6-5,2.4-7.1c0.8-2.1,1.5-3.7,2.2-4.8c0.6-1,1.1-1.5,1.5-1.5
				c0.4,0,0.9,0.1,1.6,0.4c0.7,0.3,1.5,0.6,2.2,0.9c0.7,0.4,1.4,0.7,1.9,1.1c0.5,0.4,0.8,0.7,0.8,1c-0.1,0.2-0.1,0.3-0.2,0.3
				c-0.1,0.1-0.1,0.2-0.2,0.5c-1.1,5.2-1.8,10.2-2.2,15.3c-0.4,5-0.4,9.8-0.2,14.4c2.5-5.5,5.2-10.8,8.1-16c2.9-5.1,6-10.2,9.5-15.2
				c0.2-0.2,0.3-0.5,0.6-0.8c0.2-0.3,0.5-0.6,0.8-0.9c0.3-0.3,0.6-0.6,0.9-0.8c0.3-0.2,0.6-0.3,0.8-0.3c0.4,0,0.9,0.1,1.6,0.3
				c0.7,0.2,1.3,0.5,2,0.8c0.6,0.3,1.2,0.6,1.7,1c0.5,0.4,0.7,0.7,0.7,1c0,0.2-0.1,0.3-0.2,0.4c-0.2,0.3-0.3,0.5-0.5,0.6
				c-0.2,0.2-0.3,0.4-0.4,0.6c-0.8,1.4-1.5,3.2-2.4,5.5c-0.8,2.3-1.6,4.9-2.4,7.7c-0.8,2.8-1.5,5.7-2.2,8.8c-0.7,3-1.3,5.9-1.9,8.7
				c-0.5,2.8-0.9,5.2-1.3,7.5c-0.3,2.2-0.5,3.9-0.5,5.2c0,0.6-0.3,0.9-0.9,0.9c-0.5,0-1-0.1-1.6-0.3c-0.6-0.2-1.1-0.5-1.6-0.8
				c-0.5-0.3-0.9-0.7-1.3-1.1C128.6,101.4,128.4,101,128.4,100.6"/>
			<path style="clip-path:url(#SVGID_00000100354142750374921170000003058839801826324412_);fill:#EDEEF0;" d="M152.7,57.7
				c1-0.9,2.1-1.6,3.3-2.1c1.2-0.5,2.5-0.8,3.8-0.8c0.6,0,1.2,0.1,1.9,0.4c0.6,0.3,1.3,0.6,1.9,0.9c2.3,0,4.2,0.7,5.7,2
				c1.5,1.4,2.6,3.2,3.3,5.4c0.7,2.3,1.1,4.8,1.1,7.7c0,2.9-0.3,5.8-0.9,8.8c-0.6,3-1.5,5.9-2.7,8.8c-1.2,2.9-2.6,5.4-4.2,7.7
				c-1.6,2.3-3.5,4.1-5.6,5.4c-2.1,1.4-4.3,2-6.7,2c-3.2,0-5.7-0.9-7.6-2.7c-1.9-1.8-3.2-4.1-4-6.9c-0.8-2.8-1-6-0.8-9.5
				s0.9-7,1.9-10.4c1-3.4,2.4-6.6,4-9.6C148.7,61.8,150.6,59.5,152.7,57.7 M153.5,100.2c1.3,0,2.5-0.6,3.7-1.8
				c1.2-1.2,2.3-2.8,3.3-4.8c1-2,2-4.2,2.8-6.8c0.8-2.5,1.5-5.1,2-7.7c0.5-2.6,0.9-5.2,1.1-7.7c0.2-2.5,0.2-4.7,0-6.6
				c-0.2-2.1-0.7-3.6-1.4-4.6c-0.8-1-1.7-1.4-2.7-1.4c-1,0-2,0.4-2.9,1.1c-0.9,0.7-1.7,1.4-2.3,2.2c-1.4,1.7-2.7,3.8-3.8,6.3
				c-1.1,2.5-2.1,5.2-2.8,8c-0.8,2.8-1.3,5.7-1.7,8.5c-0.4,2.8-0.4,5.4-0.2,7.7c0.2,2.3,0.7,4.1,1.6,5.5
				C150.9,99.5,152,100.2,153.5,100.2"/>
			<path style="clip-path:url(#SVGID_00000100354142750374921170000003058839801826324412_);fill:#EDEEF0;" d="M70.8,111
				c-0.3-1.4-1-2.5-1.9-3.4c-1.3-1.2-3.1-1.8-5.5-1.8c-0.3,0-0.5,0-0.8,0c0.9,1.3,1.9,2.6,2.9,3.9c0.2,0.1,0.3,0.3,0.5,0.4
				c0.2,0.2,0.3,0.4,0.4,0.7c0.9,1,1.5,1.5,2,1.5c0.1,0,0.1,0,0.1,0c0.4,0,0.8-0.3,1.5-0.6C70.2,111.4,70.5,111.2,70.8,111"/>
			<path style="clip-path:url(#SVGID_00000100354142750374921170000003058839801826324412_);fill:#EDEEF0;" d="M66.7,118.5
				c-0.1,1.2-0.3,2.2-0.8,2.7c-0.4,0.6-1.2,0.9-2.3,0.9c-1.1,0-2-0.4-2.6-1.2c-0.6-0.8-0.9-1.9-0.9-3.2v-4c0-1.3,0.3-2.4,0.9-3.2
				c0.6-0.8,1.4-1.2,2.4-1.2c0.2,0,0.3,0,0.5,0c-0.8-1.1-1.6-2.2-2.3-3.3c-1.4,0.3-2.7,1-3.7,2c-1.4,1.5-2.1,3.3-2.1,5.7v4
				c0,2.3,0.7,4.2,2.2,5.7c1.5,1.5,3.4,2.2,5.8,2.2c2.4,0,4.2-0.6,5.4-1.8c1.2-1.2,1.9-2.9,2-5.1l0-0.1H66.7z"/>
			<path style="clip-path:url(#SVGID_00000100354142750374921170000003058839801826324412_);fill:#EDEEF0;" d="M70.4,112.5
				c-0.3,0.2-0.5,0.3-0.7,0.4h1.4l0-0.1c0-0.2-0.1-0.5-0.1-0.7C70.8,112.2,70.6,112.3,70.4,112.5"/>
			<path style="clip-path:url(#SVGID_00000100354142750374921170000003058839801826324412_);fill:#EDEEF0;" d="M73.6,107.5
				c-0.1,0-0.2-0.1-0.2-0.1v1.5c0.3-0.4,0.5-0.8,0.5-1C73.8,107.7,73.7,107.6,73.6,107.5"/>
			<path style="clip-path:url(#SVGID_00000100354142750374921170000003058839801826324412_);fill:#EDEEF0;" d="M84.7,106v12.5
				c0,1.2-0.3,2.1-0.9,2.6c-0.6,0.6-1.4,0.8-2.5,0.8c-1.1,0-2-0.3-2.6-0.8c-0.6-0.6-0.9-1.4-0.9-2.6V106h-4.5v0.1
				c0.1,0,0.1,0.1,0.2,0.1c0.2,0.1,0.4,0.2,0.6,0.4c0.5,0.3,0.6,0.8,0.7,1c0.1,0.6-0.2,1.2-0.8,1.9c-0.2,0.2-0.4,0.4-0.7,0.7v8.3
				c0,2.2,0.7,3.9,2.2,5.1c1.5,1.2,3.4,1.8,5.7,1.8c2.3,0,4.2-0.6,5.7-1.8c1.4-1.2,2.2-2.9,2.2-5.1V106H84.7z"/>
			<path style="clip-path:url(#SVGID_00000100354142750374921170000003058839801826324412_);fill:#EDEEF0;" d="M58.3,84.8
				c2,4.4,4.2,8.4,6.6,12.1c2.5,3.7,4.9,6.9,7.4,9.6c0.2,0.2,0.4,0.4,0.6,0.5c0.2,0.1,0.4,0.3,0.6,0.4c0.2,0.1,0.2,0.2,0.2,0.3
				c0,0.3-0.1,0.7-0.5,1.1c-0.4,0.5-0.9,0.9-1.5,1.4c-0.6,0.5-1.2,0.9-1.9,1.3c-0.6,0.4-1.1,0.6-1.5,0.6c-0.5,0.2-1.3-0.5-2.5-2
				c-3.3-4.1-6.2-8.6-8.6-13.2c-2.4-4.7-4.5-9.5-6.2-14.3c-1.2,3.5-2.3,7-3.3,10.5c-1,3.5-1.8,6.7-2.5,9.7c-0.2,0.7-0.6,1-1.4,1
				c-0.5,0-1-0.1-1.6-0.3c-0.6-0.2-1.1-0.5-1.6-0.8c-0.5-0.3-0.9-0.7-1.3-1.1c-0.4-0.4-0.5-0.8-0.5-1.2c0-2.1,0.2-4.7,0.6-7.8
				c0.4-3.1,0.9-6.3,1.5-9.7c0.6-3.4,1.3-6.7,2.1-10.1c0.8-3.3,1.6-6.3,2.4-9c0.8-2.7,1.6-4.8,2.4-6.5c0.8-1.7,1.4-2.5,1.9-2.5
				c0.4,0,0.9,0.1,1.7,0.3c0.8,0.2,1.5,0.5,2.2,0.8c0.7,0.3,1.3,0.6,1.9,1c0.6,0.4,0.8,0.7,0.8,1c0,0.2,0,0.3-0.2,0.4
				c-0.2,0.3-0.4,0.5-0.5,0.6c-0.2,0.2,2.2-1.4,4-2.5c0.9-0.5,1.9-1.5,3.5-1.9c2.1-0.5,2.7-0.1,3.7-0.1c2.2,0,3.9,0.7,5.1,2.2
				c1.2,1.5,1.8,3.3,2,5.6c0.2,2.2,0,4.6-0.7,7.3c-0.7,2.6-1.6,5-3,7.3c-1.3,2.2-2.9,4.1-4.9,5.6c-1.9,1.5-4.1,2.2-6.5,2.2
				C58.7,84.9,58.5,84.8,58.3,84.8 M52.1,80c0.7-0.1,1.5-0.1,2.3,0.1c0.8,0.1,1.6,0.6,2.5,1.2c1.5,0,2.8-0.6,4-1.7
				c1.2-1.1,2.3-2.5,3.1-4.2c0.9-1.7,1.6-3.5,2.1-5.4c0.5-2,0.8-3.8,0.9-5.4c0.1-1.7-0.1-3.1-0.5-4.2c-0.4-1.1-1.1-1.7-2-1.7
				c-1.2,0-2.5,1-3.9,3c-1.5,2-3,4.7-4.5,8.2c-0.7,1.7-1.4,3.4-2,5.1C53.3,76.6,52.7,78.3,52.1,80"/>
		</g>
	</g>
</g>
</svg>
